<svg width="162" height="28" fill="#fff" xmlns="http://www.w3.org/2000/svg"><path d="M20.305 25.99c-1.561.831-3.633 1.535-6.454 1.535-4.575 0-7.364-1.568-9.548-3.648C1.275 20.964.096 17.7.096 13.843c0-4.753 1.96-8.178 4.191-10.258C6.917 1.105 10.17.128 13.882.128c1.833 0 4.033.32 6.423 1.616v5.97a8.387 8.387 0 00-6.311-2.945c-5.244 0-8.655 4.32-8.655 9.154 0 5.825 4.463 8.961 8.846 8.961 2.423 0 4.574-1.056 6.104-2.864v5.97h.016zM30.793.72v26.23h-5.084V.72h5.084zm6.662 26.213V.128h3.522l15.89 18.244V.72h5.085v26.741H58.43L42.54 9.218v17.731h-5.085v-.016z"/><path fill-rule="evenodd" clip-rule="evenodd" d="M112.255 2.523C111.03 1.495 109.2.546 105.605.546H98.08v26.341h5.075V16.313h.62l6.952 10.575h6.332l-8.129-11.089c1.24-.225 2.179-.675 2.847-1.14 2.037-1.383 3.055-3.633 3.055-6.204 0-1.977-.589-4.227-2.577-5.93zm-7.669 10.141h-1.463V4.725h1.527c.939 0 4.932.048 4.932 3.954 0 3.873-4.025 3.985-4.996 3.985z"/><path d="M129.404 4.966v21.905h-5.075V4.966h-5.87V.546h16.8v4.42h-5.855z"/><path fill-rule="evenodd" clip-rule="evenodd" d="M142.811 21.359h10.516l2.307 5.528h5.473L150.13 0h-3.835L135 26.887h5.505l2.306-5.528zm5.362-13.677l3.675 9.482h-7.43l3.755-9.482zM74.811 21.359h10.516l2.307 5.528h5.473L82.129 0h-3.834L67 26.887h5.504l2.307-5.528zm5.362-13.677l3.675 9.482h-7.43l3.755-9.482z"/></svg>