<svg width="285" height="66" fill="none" xmlns="http://www.w3.org/2000/svg"><rect x="7.916" y="24.094" width="5.336" height="40.748" rx=".22" fill="#ABD856"/><rect x="12.283" y="11.482" width="6.306" height="8.732" rx=".22" fill="#ABD856"/><path fill-rule="evenodd" clip-rule="evenodd" d="M39.158.13a.22.22 0 00-.307.048l-2.878 3.96a.22.22 0 00.049.308l23.096 16.78a.22.22 0 00.349-.178L59.472 15a.22.22 0 00-.09-.178L39.157.13z" fill="#ABD856"/><path fill-rule="evenodd" clip-rule="evenodd" d="M38.907.13a.22.22 0 01.307.048l2.878 3.96a.22.22 0 01-.049.308L3.939 32.13a.22.22 0 01-.307-.049l-2.878-3.96a.22.22 0 01.049-.308L38.907.13z" fill="#ABD856"/><path fill-rule="evenodd" clip-rule="evenodd" d="M51.904 53.511c0-1.813-.333-3.426-1-4.838-.667-1.413-1.608-2.51-2.822-3.291-1.214-.782-2.613-1.209-4.197-1.282v5.456c1.292.042 2.235.396 2.83 1.063.593.667.89 1.631.89 2.892 0 1.49-.52 2.54-1.563 3.15-1.042.61-2.778.915-5.206.915h-1.61c-2.24-.032-3.872-.365-4.893-1-1.021-.637-1.532-1.637-1.532-3.002 0-1.345.302-2.345.907-3.002.604-.657 1.6-1.006 2.986-1.047v-5.472c-2.554.23-4.557 1.183-6.011 2.861-1.454 1.678-2.181 3.898-2.181 6.66 0 1.917.456 3.605 1.368 5.065.912 1.459 2.204 2.576 3.877 3.353 1.672.776 3.624 1.164 5.854 1.164h1.126c3.554 0 6.305-.86 8.254-2.579 1.949-1.72 2.923-4.075 2.923-7.066zm0-21.354c0-1.939-.461-3.666-1.383-5.182-.923-1.517-2.238-2.687-3.948-3.51-1.709-.823-3.673-1.235-5.893-1.235h-1.047c-2.19.01-4.13.435-5.824 1.274-1.693.839-2.999 2.014-3.916 3.525-.917 1.511-1.375 3.23-1.375 5.159 0 1.949.463 3.687 1.39 5.213.928 1.527 2.244 2.7 3.948 3.518 1.704.818 3.671 1.227 5.901 1.227h1.282c2.147-.042 4.05-.482 5.706-1.32 1.657-.84 2.931-2.01 3.823-3.51.89-1.501 1.336-3.22 1.336-5.16zm-6.081 3.298c1.199-.74 1.798-1.84 1.798-3.298 0-1.386-.589-2.455-1.767-3.205-1.177-.75-2.87-1.13-5.08-1.141h-1.048c-2.261 0-3.978.378-5.15 1.133-1.173.756-1.76 1.837-1.76 3.244 0 2.751 2.064 4.205 6.191 4.361l1.673.016c2.23 0 3.944-.37 5.143-1.11z" fill="#fff"/><path fill-rule="evenodd" clip-rule="evenodd" d="M51.904 53.511c0-1.813-.333-3.426-1-4.838-.667-1.413-1.608-2.51-2.822-3.291-1.214-.782-2.613-1.209-4.197-1.282v5.456c1.292.042 2.235.396 2.83 1.063.593.667.89 1.631.89 2.892 0 1.49-.52 2.54-1.563 3.15-1.042.61-2.778.915-5.206.915h-1.61c-2.24-.032-3.872-.365-4.893-1-1.021-.637-1.532-1.637-1.532-3.002 0-1.345.302-2.345.907-3.002.604-.657 1.6-1.006 2.986-1.047v-5.472c-2.554.23-4.557 1.183-6.011 2.861-1.454 1.678-2.181 3.898-2.181 6.66 0 1.917.456 3.605 1.368 5.065.912 1.459 2.204 2.576 3.877 3.353 1.672.776 3.624 1.164 5.854 1.164h1.126c3.554 0 6.305-.86 8.254-2.579 1.949-1.72 2.923-4.075 2.923-7.066zm0-21.354c0-1.939-.461-3.666-1.383-5.182-.923-1.517-2.238-2.687-3.948-3.51-1.709-.823-3.673-1.235-5.893-1.235h-1.047c-2.19.01-4.13.435-5.824 1.274-1.693.839-2.999 2.014-3.916 3.525-.917 1.511-1.375 3.23-1.375 5.159 0 1.949.463 3.687 1.39 5.213.928 1.527 2.244 2.7 3.948 3.518 1.704.818 3.671 1.227 5.901 1.227h1.282c2.147-.042 4.05-.482 5.706-1.32 1.657-.84 2.931-2.01 3.823-3.51.89-1.501 1.336-3.22 1.336-5.16zm-6.081 3.298c1.199-.74 1.798-1.84 1.798-3.298 0-1.386-.589-2.455-1.767-3.205-1.177-.75-2.87-1.13-5.08-1.141h-1.048c-2.261 0-3.978.378-5.15 1.133-1.173.756-1.76 1.837-1.76 3.244 0 2.751 2.064 4.205 6.191 4.361l1.673.016c2.23 0 3.944-.37 5.143-1.11z" fill="#ABD856"/><path fill-rule="evenodd" clip-rule="evenodd" d="M95.071 59.857v5.009h-28.17V17.344l6.157 4.466v38.047H95.07zm30.89-1.021c-2.893 4.445-7.232 6.668-13.017 6.668-4.679 0-8.486-1.537-11.421-4.61-2.935-3.074-4.403-7.184-4.403-12.33v-1.086c0-3.424.654-6.481 1.962-9.172 1.308-2.69 3.137-4.796 5.488-6.317 2.35-1.52 4.897-2.28 7.64-2.28 4.488 0 7.976 1.477 10.465 4.434 2.488 2.956 3.732 7.189 3.732 12.697v2.457h-23.385c.085 3.403 1.08 6.152 2.983 8.247 1.904 2.095 4.323 3.142 7.258 3.142 2.085 0 3.85-.425 5.296-1.276 1.446-.85 2.712-1.978 3.797-3.381l3.605 2.807zm-5.456-14.388h-17.291c.382-3.127 1.382-5.557 2.999-7.29 1.616-1.734 3.615-2.6 5.997-2.6 2.468 0 4.424.824 5.871 2.472 1.446 1.648 2.254 3.972 2.424 6.971v.447zm30.698 16.78c-2.743 2.85-6.019 4.276-9.826 4.276-3.403 0-6.194-.963-8.374-2.888-2.18-1.924-3.27-4.365-3.27-7.321 0-3.595 1.366-6.386 4.099-8.375 2.733-1.989 6.578-2.983 11.533-2.983h5.743v-2.712c0-2.063-.617-3.706-1.851-4.929-1.233-1.223-3.052-1.834-5.455-1.834-2.106 0-3.871.532-5.296 1.595-1.425 1.063-2.138 2.35-2.138 3.86h-5.934c0-1.722.612-3.387 1.835-4.992 1.223-1.606 2.882-2.877 4.977-3.813 2.095-.936 4.397-1.404 6.907-1.404 3.977 0 7.093.995 9.348 2.983 2.254 1.989 3.424 4.727 3.509 8.215v15.888c0 3.17.404 5.69 1.212 7.561v.51h-6.189c-.34-.68-.617-1.892-.83-3.636zm-8.964-.86c-1.936 0-3.52-.522-4.754-1.564-1.234-1.042-1.85-2.488-1.85-4.339 0-4.232 3.615-6.349 10.847-6.349h4.626V55.2c-.745 1.531-1.946 2.776-3.605 3.733-1.659.957-3.414 1.435-5.264 1.435zm43.81 2.344c-2.467 1.861-5.668 2.792-9.603 2.792-2.765 0-5.211-.49-7.337-1.468-2.127-.978-3.792-2.345-4.993-4.1-1.202-1.754-1.803-3.652-1.803-5.694h5.902c.107 1.978.899 3.547 2.377 4.706 1.478 1.159 3.43 1.738 5.854 1.738 2.234 0 4.025-.452 5.376-1.355 1.351-.904 2.026-2.111 2.026-3.622 0-1.595-.601-2.834-1.803-3.716-1.201-.883-3.296-1.643-6.285-2.281-2.988-.638-5.359-1.404-7.114-2.297-1.755-.894-3.052-1.957-3.892-3.19-.84-1.234-1.26-2.702-1.26-4.403 0-2.83 1.196-5.222 3.589-7.179 2.392-1.956 5.45-2.935 9.172-2.935 3.913 0 7.088 1.01 9.523 3.031 2.435 2.02 3.653 4.605 3.653 7.753h-5.934c0-1.617-.686-3.01-2.058-4.18-1.372-1.17-3.1-1.754-5.184-1.754-2.148 0-3.829.468-5.041 1.403-1.212.936-1.818 2.16-1.818 3.67 0 1.424.563 2.498 1.691 3.221 1.127.724 3.163 1.415 6.109 2.074 2.946.66 5.333 1.447 7.162 2.361 1.829.915 3.185 2.015 4.068 3.302.883 1.287 1.324 2.855 1.324 4.706 0 3.084-1.234 5.556-3.701 7.417zm23.201 2.792c5.785 0 10.124-2.223 13.017-6.668l-3.605-2.807c-1.085 1.403-2.351 2.53-3.797 3.381-1.446.851-3.211 1.276-5.296 1.276-2.935 0-5.354-1.047-7.258-3.142-1.903-2.095-2.898-4.844-2.983-8.247h23.385V46.84c0-5.508-1.244-9.74-3.732-12.697-2.489-2.957-5.977-4.435-10.465-4.435-2.743 0-5.29.76-7.64 2.281-2.351 1.521-4.18 3.627-5.488 6.317-1.308 2.69-1.962 5.748-1.962 9.172v1.085c0 5.147 1.468 9.257 4.403 12.33 2.935 3.074 6.742 4.61 11.421 4.61zm-9.73-21.056h17.291V44c-.17-2.999-.978-5.322-2.424-6.97-1.447-1.65-3.403-2.473-5.871-2.473-2.382 0-4.381.866-5.997 2.6-1.617 1.733-2.616 4.163-2.999 7.29zm45.7-19.908c1.148 0 2.02-.319 2.616-.957.595-.638.893-1.436.893-2.393 0-.957-.298-1.765-.893-2.425-.596-.659-1.468-.989-2.616-.989-1.149 0-2.015.33-2.6.99-.585.659-.878 1.467-.878 2.424 0 .957.293 1.755.878 2.393.585.638 1.451.957 2.6.957zm2.903 5.806v34.52h-5.902v-34.52h5.902zm21.095 35.158c3.106 0 5.855-.745 8.247-2.234 2.393-1.488 4.233-3.567 5.52-6.237 1.286-2.669 1.93-5.684 1.93-9.044v-.415c0-5.402-1.452-9.73-4.355-12.984-2.903-3.255-6.705-4.882-11.405-4.882-3.042 0-5.748.734-8.12 2.202-2.371 1.467-4.222 3.552-5.551 6.253-1.329 2.7-1.994 5.742-1.994 9.124v.415c0 5.36 1.452 9.666 4.355 12.92 2.903 3.255 6.694 4.882 11.373 4.882zm-7.13-8.295c1.776 2.318 4.153 3.477 7.13 3.477 2.999 0 5.381-1.175 7.147-3.525 1.765-2.35 2.648-5.642 2.648-9.874 0-3.786-.899-6.854-2.696-9.204-1.797-2.35-4.185-3.525-7.162-3.525-2.914 0-5.264 1.159-7.051 3.477-1.787 2.318-2.68 5.636-2.68 9.954 0 3.828.888 6.902 2.664 9.22z" fill="#fff"/><path fill-rule="evenodd" clip-rule="evenodd" d="M95.071 59.857v5.009h-28.17V17.344l6.157 4.466v38.047H95.07zm30.89-1.021c-2.893 4.445-7.232 6.668-13.017 6.668-4.679 0-8.486-1.537-11.421-4.61-2.935-3.074-4.403-7.184-4.403-12.33v-1.086c0-3.424.654-6.481 1.962-9.172 1.308-2.69 3.137-4.796 5.488-6.317 2.35-1.52 4.897-2.28 7.64-2.28 4.488 0 7.976 1.477 10.465 4.434 2.488 2.956 3.732 7.189 3.732 12.697v2.457h-23.385c.085 3.403 1.08 6.152 2.983 8.247 1.904 2.095 4.323 3.142 7.258 3.142 2.085 0 3.85-.425 5.296-1.276 1.446-.85 2.712-1.978 3.797-3.381l3.605 2.807zm-5.456-14.388h-17.291c.382-3.127 1.382-5.557 2.999-7.29 1.616-1.734 3.615-2.6 5.997-2.6 2.468 0 4.424.824 5.871 2.472 1.446 1.648 2.254 3.972 2.424 6.971v.447zm30.698 16.78c-2.743 2.85-6.019 4.276-9.826 4.276-3.403 0-6.194-.963-8.374-2.888-2.18-1.924-3.27-4.365-3.27-7.321 0-3.595 1.366-6.386 4.099-8.375 2.733-1.989 6.578-2.983 11.533-2.983h5.743v-2.712c0-2.063-.617-3.706-1.851-4.929-1.233-1.223-3.052-1.834-5.455-1.834-2.106 0-3.871.532-5.296 1.595-1.425 1.063-2.138 2.35-2.138 3.86h-5.934c0-1.722.612-3.387 1.835-4.992 1.223-1.606 2.882-2.877 4.977-3.813 2.095-.936 4.397-1.404 6.907-1.404 3.977 0 7.093.995 9.348 2.983 2.254 1.989 3.424 4.727 3.509 8.215v15.888c0 3.17.404 5.69 1.212 7.561v.51h-6.189c-.34-.68-.617-1.892-.83-3.636zm-8.964-.86c-1.936 0-3.52-.522-4.754-1.564-1.234-1.042-1.85-2.488-1.85-4.339 0-4.232 3.615-6.349 10.847-6.349h4.626V55.2c-.745 1.531-1.946 2.776-3.605 3.733-1.659.957-3.414 1.435-5.264 1.435zm43.81 2.344c-2.467 1.861-5.668 2.792-9.603 2.792-2.765 0-5.211-.49-7.337-1.468-2.127-.978-3.792-2.345-4.993-4.1-1.202-1.754-1.803-3.652-1.803-5.694h5.902c.107 1.978.899 3.547 2.377 4.706 1.478 1.159 3.43 1.738 5.854 1.738 2.234 0 4.025-.452 5.376-1.355 1.351-.904 2.026-2.111 2.026-3.622 0-1.595-.601-2.834-1.803-3.716-1.201-.883-3.296-1.643-6.285-2.281-2.988-.638-5.359-1.404-7.114-2.297-1.755-.894-3.052-1.957-3.892-3.19-.84-1.234-1.26-2.702-1.26-4.403 0-2.83 1.196-5.222 3.589-7.179 2.392-1.956 5.45-2.935 9.172-2.935 3.913 0 7.088 1.01 9.523 3.031 2.435 2.02 3.653 4.605 3.653 7.753h-5.934c0-1.617-.686-3.01-2.058-4.18-1.372-1.17-3.1-1.754-5.184-1.754-2.148 0-3.829.468-5.041 1.403-1.212.936-1.818 2.16-1.818 3.67 0 1.424.563 2.498 1.691 3.221 1.127.724 3.163 1.415 6.109 2.074 2.946.66 5.333 1.447 7.162 2.361 1.829.915 3.185 2.015 4.068 3.302.883 1.287 1.324 2.855 1.324 4.706 0 3.084-1.234 5.556-3.701 7.417zm23.201 2.792c5.785 0 10.124-2.223 13.017-6.668l-3.605-2.807c-1.085 1.403-2.351 2.53-3.797 3.381-1.446.851-3.211 1.276-5.296 1.276-2.935 0-5.354-1.047-7.258-3.142-1.903-2.095-2.898-4.844-2.983-8.247h23.385V46.84c0-5.508-1.244-9.74-3.732-12.697-2.489-2.957-5.977-4.435-10.465-4.435-2.743 0-5.29.76-7.64 2.281-2.351 1.521-4.18 3.627-5.488 6.317-1.308 2.69-1.962 5.748-1.962 9.172v1.085c0 5.147 1.468 9.257 4.403 12.33 2.935 3.074 6.742 4.61 11.421 4.61zm-9.73-21.056h17.291V44c-.17-2.999-.978-5.322-2.424-6.97-1.447-1.65-3.403-2.473-5.871-2.473-2.382 0-4.381.866-5.997 2.6-1.617 1.733-2.616 4.163-2.999 7.29zm45.7-19.908c1.148 0 2.02-.319 2.616-.957.595-.638.893-1.436.893-2.393 0-.957-.298-1.765-.893-2.425-.596-.659-1.468-.989-2.616-.989-1.149 0-2.015.33-2.6.99-.585.659-.878 1.467-.878 2.424 0 .957.293 1.755.878 2.393.585.638 1.451.957 2.6.957zm2.903 5.806v34.52h-5.902v-34.52h5.902zm21.095 35.158c3.106 0 5.855-.745 8.247-2.234 2.393-1.488 4.233-3.567 5.52-6.237 1.286-2.669 1.93-5.684 1.93-9.044v-.415c0-5.402-1.452-9.73-4.355-12.984-2.903-3.255-6.705-4.882-11.405-4.882-3.042 0-5.748.734-8.12 2.202-2.371 1.467-4.222 3.552-5.551 6.253-1.329 2.7-1.994 5.742-1.994 9.124v.415c0 5.36 1.452 9.666 4.355 12.92 2.903 3.255 6.694 4.882 11.373 4.882zm-7.13-8.295c1.776 2.318 4.153 3.477 7.13 3.477 2.999 0 5.381-1.175 7.147-3.525 1.765-2.35 2.648-5.642 2.648-9.874 0-3.786-.899-6.854-2.696-9.204-1.797-2.35-4.185-3.525-7.162-3.525-2.914 0-5.264 1.159-7.051 3.477-1.787 2.318-2.68 5.636-2.68 9.954 0 3.828.888 6.902 2.664 9.22z" fill="#53C7CD"/><path d="M230.798 65.228c1.218 0 2.143-.331 2.773-.994.63-.662.945-1.485.945-2.468 0-1.025-.315-1.88-.945-2.564-.63-.684-1.555-1.026-2.773-1.026-1.218 0-2.131.342-2.74 1.026-.609.684-.913 1.539-.913 2.564 0 .983.304 1.806.913 2.468.609.663 1.522.994 2.74.994z" fill="#fff"/><path d="M230.798 65.228c1.218 0 2.143-.331 2.773-.994.63-.662.945-1.485.945-2.468 0-1.025-.315-1.88-.945-2.564-.63-.684-1.555-1.026-2.773-1.026-1.218 0-2.131.342-2.74 1.026-.609.684-.913 1.539-.913 2.564 0 .983.304 1.806.913 2.468.609.663 1.522.994 2.74.994z" fill="#ABD856"/></svg>