<svg width="200" height="36" fill="none" xmlns="http://www.w3.org/2000/svg"><g clip-path="url(#clip0)" fill="#00B956"><path d="M19.958.106v18.53c0 .846-.627 1.482-1.463 1.482h-2.194c-.105 0-.21.106-.21.211v15.565c.523 0 1.046.106 1.673.106 9.822 0 17.764-8.047 17.764-18 0-9.212-6.793-16.835-15.57-17.894zm-.418 27.741c-1.254 0-2.194-1.059-2.194-2.224A2.222 2.222 0 0119.54 23.4c1.254 0 2.194 1.059 2.194 2.224.105 1.164-.94 2.223-2.194 2.223zm5.225 0c-1.254 0-2.195-1.059-2.195-2.224a2.222 2.222 0 012.195-2.223c1.254 0 2.194 1.059 2.194 2.224 0 1.164-.94 2.223-2.194 2.223zm5.224 0c-1.254 0-2.194-1.059-2.194-2.224a2.222 2.222 0 012.194-2.223c1.254 0 2.195 1.059 2.195 2.224 0 1.164-.94 2.223-2.195 2.223z"/><path d="M17.764 0C7.94 0 0 8.047 0 18c0 8.682 5.956 15.882 14.002 17.576v-16.2c0-.74.627-1.376 1.358-1.482h2.196c.104 0 .209-.106.209-.212V0zm-3.448 14.823c-1.254 0-2.195-1.058-2.195-2.223a2.222 2.222 0 012.195-2.224c1.253 0 2.194 1.06 2.194 2.224 0 1.165-.94 2.223-2.194 2.223zm181.295-4.975v6.776h-8.986V9.848h-4.493v18h4.493v-7.306h8.986v7.306H200v-18h-4.389zM121.63 11.86c-.731-1.59-2.194-2.436-3.657-2.436s-2.926.847-3.657 2.435l-7.211 15.988h4.703l1.567-3.811h9.195l1.568 3.811h4.702l-7.21-15.988zm-6.792 8.576l2.717-6.565c.104-.212.209-.212.313-.212.105 0 .314 0 .314.212l2.717 6.565h-6.061zM68.757 6.565c-2.09 0-3.449 1.165-4.39 3.388l-5.746 13.553-5.747-13.553c-.94-2.223-2.3-3.388-4.39-3.388-1.985 0-3.97 1.376-3.97 4.447v16.73h4.389v-16.2l5.852 13.446c.731 1.906 2.09 3.071 3.866 3.071 1.88 0 3.134-1.165 3.866-3.07l5.852-13.448v16.306h4.388v-16.73c0-3.07-1.985-4.552-3.97-4.552zm11.807 17.471c-.209 0-.418-.212-.418-.424v-3.176h11.077V16.73H80.146v-2.753c0-.212.21-.424.418-.424h10.972V9.742H78.37c-1.568 0-2.612 1.27-2.612 2.647v12.6c0 1.376 1.149 2.647 2.612 2.647h13.166v-3.812H80.564v.212zm18.391 3.812V14.083c0-.212.21-.424.418-.424h10.972V9.848H97.179c-1.568 0-2.613 1.27-2.613 2.647v15.247h4.39v.106zm80.251-9.001c0-6.247-2.717-9.212-9.405-9.212h-1.567c-6.688 0-9.404 2.965-9.404 9.212 0 6.141 2.716 9.212 9.404 9.212h1.463c6.792-.106 9.509-3.07 9.509-9.212zm-9.509 5.4h-1.463c-3.657 0-5.12-1.694-5.12-5.4 0-3.6 1.254-5.4 5.12-5.4h1.463c3.762 0 5.12 1.8 5.12 5.4 0 3.706-1.358 5.4-5.12 5.4zM146.499 6.988h-8.777c-6.583 0-9.195 3.388-9.195 9.212 0 .953.104 1.8.209 2.541.731 4.13 3.134 6.67 9.3 6.67h1.985v2.33h4.389v-2.33h1.88c6.166 0 8.569-2.54 9.3-6.67.105-.741.209-1.588.209-2.541-.104-5.823-2.821-9.212-9.3-9.212zm-6.687 14.718h-1.985c-3.031 0-4.076-1.165-4.703-2.965-.209-.635-.209-1.588-.209-2.541 0-3.812 1.777-5.4 4.285-5.4h2.716v10.906h-.104zm11.285-2.859c-.627 1.8-1.776 2.965-4.702 2.965h-1.985V10.8h2.716c2.508 0 4.285 1.588 4.285 5.4-.105 1.059-.105 1.906-.314 2.647z"/></g><defs><clipPath id="clip0"><path fill="#fff" d="M0 0h200v36H0z"/></clipPath></defs></svg>